<?xml version="1.0" encoding="UTF-8"?>
<svg width="32" height="32" viewBox="0 0 32 32" fill="none" xmlns="http://www.w3.org/2000/svg">
  <!-- Background Circle -->
  <circle cx="16" cy="16" r="16" fill="#0070F3"/>
  
  <!-- Football Pattern -->
  <path d="M16 4C9.373 4 4 9.373 4 16s5.373 12 12 12 12-5.373 12-12S22.627 4 16 4zm0 2c5.523 0 10 4.477 10 10s-4.477 10-10 10S6 21.523 6 16 10.477 6 16 6z" fill="white"/>
  <path d="M16 8c-4.418 0-8 3.582-8 8s3.582 8 8 8 8-3.582 8-8-3.582-8-8-8zm0 2c3.314 0 6 2.686 6 6s-2.686 6-6 6-6-2.686-6-6 2.686-6 6-6z" fill="#0070F3"/>
  <path d="M16 12c-2.209 0-4 1.791-4 4s1.791 4 4 4 4-1.791 4-4-1.791-4-4-4zm0 2c1.105 0 2 .895 2 2s-.895 2-2 2-2-.895-2-2 .895-2 2-2z" fill="white"/>
</svg> 